<?xml version="1.0" standalone="no"?>
<!DOCTYPE svg PUBLIC "-//W3C//DTD SVG 20010904//EN"
 "http://www.w3.org/TR/2001/REC-SVG-20010904/DTD/svg10.dtd">
<svg version="1.0" xmlns="http://www.w3.org/2000/svg"
 width="240.000000pt" height="96.000000pt" viewBox="0 0 240.000000 96.000000"
 preserveAspectRatio="xMidYMid meet">

<g transform="translate(0.000000,96.000000) scale(0.100000,-0.100000)"
fill="#000000" stroke="none">
<path d="M1341 847 c-10 -30 -26 -41 -121 -90 -109 -56 -140 -67 -140 -47 0 6
-4 10 -10 10 -5 0 -10 -7 -10 -15 0 -18 -31 -35 -64 -35 -39 0 -31 -18 10 -26
l36 -7 -7 -41 c-12 -66 -11 -88 6 -99 9 -6 24 -7 34 -3 15 5 17 15 12 64 -4
37 -2 66 6 80 7 14 54 45 115 77 l102 53 0 -49 c0 -61 -19 -188 -31 -211 -10
-19 -29 -24 -29 -8 0 25 -46 126 -66 147 -23 23 -25 23 -54 8 -16 -9 -30 -22
-30 -31 0 -12 4 -13 20 -4 17 9 22 7 31 -17 14 -37 15 -113 1 -138 -6 -13 -37
-29 -84 -44 -86 -28 -168 -67 -168 -81 0 -13 2 -13 57 9 165 65 157 63 142 45
-13 -16 -11 -17 26 -10 21 4 56 16 77 27 48 25 49 18 2 -10 -49 -29 -38 -36
19 -12 51 22 70 16 35 -11 -20 -15 -21 -19 -8 -28 30 -20 47 -10 64 35 11 27
33 56 57 76 32 25 37 34 28 45 -6 8 -23 14 -37 14 l-25 0 7 98 c8 114 19 160
46 195 24 30 25 37 5 37 -8 0 -15 7 -15 15 0 28 -28 15 -39 -18z"/>
<path d="M1673 800 c10 -35 9 -43 -8 -60 -11 -11 -38 -26 -60 -34 l-40 -14 28
-11 c16 -6 37 -11 48 -11 16 0 19 -7 19 -57 l1 -58 24 30 c14 17 30 46 36 65
7 19 20 51 30 71 17 35 17 37 -1 67 -19 32 -48 52 -73 52 -12 0 -12 -7 -4 -40z"/>
<path d="M550 794 c-19 -14 -83 -54 -142 -90 -60 -36 -108 -70 -108 -76 0 -19
125 -1 184 27 98 46 179 134 145 156 -22 14 -42 10 -79 -17z"/>
<path d="M2021 734 l-80 -66 -31 18 c-38 23 -45 16 -70 -72 -22 -77 -24 -94
-11 -94 5 0 15 34 22 75 6 41 15 75 18 75 4 0 12 -13 18 -30 6 -16 18 -30 26
-30 8 0 39 27 67 60 50 58 90 90 90 73 0 -5 -23 -40 -51 -78 -67 -92 -109
-176 -109 -220 0 -45 23 -47 50 -2 l21 32 -7 -40 c-5 -33 -2 -44 15 -59 17
-16 27 -18 49 -10 30 10 43 44 18 44 -9 0 -16 1 -16 3 0 1 7 24 15 51 30 98
11 120 -62 75 l-35 -22 21 42 c12 22 58 79 102 126 66 71 78 89 69 101 -22 25
-47 15 -129 -52z"/>
<path d="M467 573 c-4 -3 -7 -16 -7 -28 0 -11 -15 -36 -34 -54 -41 -40 -59
-78 -54 -117 2 -23 9 -30 31 -32 15 -2 27 -6 27 -9 0 -3 -13 -28 -30 -55 -16
-26 -30 -58 -30 -70 0 -19 4 -20 56 -14 68 8 163 44 178 68 8 13 6 22 -8 37
-25 27 -47 26 -92 -4 -73 -49 -75 -19 -3 50 126 124 142 195 43 195 -33 0 -43
4 -47 20 -5 20 -18 26 -30 13z m103 -72 c0 -4 -10 -21 -22 -36 -20 -26 -22
-26 -29 -9 -16 40 -13 42 44 53 4 0 7 -3 7 -8z m-138 -74 c-18 -39 -32 -48
-32 -20 0 15 40 67 46 60 2 -2 -4 -20 -14 -40z"/>
<path d="M1760 545 c-23 -24 -47 -35 -35 -15 9 15 -22 12 -55 -5 -38 -20 -38
-35 0 -35 33 0 38 -14 15 -44 -19 -25 -19 -46 0 -46 14 0 73 65 107 118 15 24
16 31 5 41 -11 8 -19 5 -37 -14z"/>
<path d="M1749 417 c0 -1 -2 -11 -4 -21 -5 -24 -108 -129 -155 -159 -26 -16
-30 -23 -18 -25 9 -2 36 9 60 24 44 28 168 141 168 154 0 6 -49 33 -51 27z"/>
<path d="M992 271 c-27 -23 -32 -33 -26 -55 3 -14 10 -29 15 -32 10 -6 118 66
119 79 0 4 -16 5 -35 1 -36 -6 -44 3 -23 24 26 26 -17 11 -50 -17z"/>
<path d="M1320 280 c9 -16 6 -27 -15 -57 -33 -49 -32 -57 8 -48 17 4 42 7 55
6 39 -2 94 26 90 46 -3 19 -100 73 -130 73 -16 0 -17 -3 -8 -20z"/>
<path d="M1984 281 c3 -4 0 -15 -7 -24 -9 -11 -62 -21 -212 -37 -110 -12 -202
-24 -204 -26 -11 -10 17 -11 179 -2 156 9 181 13 228 36 55 27 59 31 40 50
-14 14 -32 16 -24 3z"/>
</g>
</svg>
